<svg xmlns="http://www.w3.org/2000/svg" viewBox="0 0 512 512">
  <defs>
    <linearGradient id="bg" x1="0" y1="0" x2="1" y2="1">
      <stop offset="0" stop-color="#ffe4f1"/>
      <stop offset="0.5" stop-color="#ffb74d"/>
      <stop offset="1" stop-color="#ff6b9d"/>
    </linearGradient>
  </defs>
  <rect width="512" height="512" rx="112" fill="url(#bg)"/>
  <!-- 拼圖塊：藍色（左上） -->
  <path d="M 96 96 h 128 v 32 a 24 24 0 0 0 0 48 v 32 h -64 a 24 24 0 0 1 -48 0 h -16 z"
        fill="#29b6f6" stroke="#1976d2" stroke-width="6"/>
  <!-- 拼圖塊：橘色（右下） -->
  <path d="M 416 416 h -128 v -32 a 24 24 0 0 1 0 -48 v -32 h 64 a 24 24 0 0 0 48 0 h 16 z"
        fill="#fb8c00" stroke="#e65100" stroke-width="6"/>
  <!-- 加號 -->
  <g stroke="#fff" stroke-width="40" stroke-linecap="round">
    <line x1="200" y1="256" x2="312" y2="256"/>
    <line x1="256" y1="200" x2="256" y2="312"/>
  </g>
  <g stroke="#c94a78" stroke-width="8" stroke-linecap="round">
    <line x1="200" y1="256" x2="312" y2="256"/>
    <line x1="256" y1="200" x2="256" y2="312"/>
  </g>
</svg>
