<?xml version="1.0" encoding="UTF-8" standalone="no"?>
<!-- Created with Inkscape (http://www.inkscape.org/) -->

<svg
   width="18.746229mm"
   height="18.746229mm"
   viewBox="0 0 18.746229 18.746229"
   version="1.1"
   id="svg1"
   xml:space="preserve"
   inkscape:version="1.4.3 (0d15f75, 2025-12-25)"
   sodipodi:docname="config.svg"
   xmlns:inkscape="http://www.inkscape.org/namespaces/inkscape"
   xmlns:sodipodi="http://sodipodi.sourceforge.net/DTD/sodipodi-0.dtd"
   xmlns="http://www.w3.org/2000/svg"
   xmlns:svg="http://www.w3.org/2000/svg"><sodipodi:namedview
     id="namedview1"
     pagecolor="#505050"
     bordercolor="#eeeeee"
     borderopacity="1"
     inkscape:showpageshadow="0"
     inkscape:pageopacity="0"
     inkscape:pagecheckerboard="0"
     inkscape:deskcolor="#505050"
     inkscape:document-units="mm"
     inkscape:zoom="2.8970539"
     inkscape:cx="29.340151"
     inkscape:cy="23.299532"
     inkscape:window-width="1920"
     inkscape:window-height="962"
     inkscape:window-x="0"
     inkscape:window-y="30"
     inkscape:window-maximized="1"
     inkscape:current-layer="layer1" /><defs
     id="defs1"><clipPath
       clipPathUnits="userSpaceOnUse"
       id="clipPath3"><rect
         style="fill:#faf5e1;fill-opacity:1;stroke:none;stroke-width:2.13841;stroke-linecap:round;stroke-linejoin:round"
         id="rect3"
         width="365.25848"
         height="180.82101"
         x="464.87256"
         y="365.7879"
         ry="0.77305228" /></clipPath><clipPath
       clipPathUnits="userSpaceOnUse"
       id="clipPath3-3"><rect
         style="fill:#faf5e1;fill-opacity:1;stroke:none;stroke-width:2.13841;stroke-linecap:round;stroke-linejoin:round"
         id="rect3-0"
         width="365.25848"
         height="180.82101"
         x="464.87256"
         y="365.7879"
         ry="0.77305228" /></clipPath><clipPath
       clipPathUnits="userSpaceOnUse"
       id="clipPath4"><circle
         style="fill:#bdd1f5;stroke-width:2.00607;stroke-linecap:round;stroke-linejoin:round"
         id="circle4"
         cx="639.91492"
         cy="791.97913"
         r="13.881919" /></clipPath></defs><g
     inkscape:label="Layer 1"
     inkscape:groupmode="layer"
     id="layer1"
     transform="translate(-769.35308,-376.19894)"><g
       id="g9"
       inkscape:export-filename="../Git/PlayMath/icons/config.png"
       inkscape:export-xdpi="96"
       inkscape:export-ydpi="96"><path
         sodipodi:type="star"
         style="fill:#ede7d8;fill-opacity:1;stroke:none;stroke-width:2.00607;stroke-linecap:round;stroke-linejoin:round;stroke-opacity:1"
         id="path9"
         inkscape:flatsided="false"
         sodipodi:sides="8"
         sodipodi:cx="-231.35817"
         sodipodi:cy="612.06219"
         sodipodi:r1="19.45289"
         sodipodi:r2="15.056537"
         sodipodi:arg1="0.52359878"
         sodipodi:arg2="0.91629786"
         inkscape:rounded="0.356"
         inkscape:randomized="0"
         d="m -214.51147,621.78864 c -1.42309,2.46486 -5.42283,0.48606 -7.68086,2.21871 -2.25803,1.73264 -1.38186,6.10825 -4.13106,6.84489 -2.7492,0.73665 -4.17822,-3.49082 -7.00005,-3.86232 -2.82183,-0.3715 -5.29631,3.34206 -7.76117,1.91897 -2.46487,-1.42309 -0.48607,-5.42283 -2.21871,-7.68086 -1.73265,-2.25802 -6.10825,-1.38186 -6.8449,-4.13106 -0.73664,-2.7492 3.49082,-4.17822 3.86232,-7.00005 0.37151,-2.82183 -3.34206,-5.29631 -1.91897,-7.76117 1.42309,-2.46487 5.42283,-0.48606 7.68086,-2.21871 2.25803,-1.73264 1.38186,-6.10825 4.13106,-6.84489 2.7492,-0.73665 4.17822,3.49082 7.00005,3.86232 2.82183,0.3715 5.29631,-3.34206 7.76118,-1.91897 2.46486,1.42309 0.48606,5.42283 2.2187,7.68086 1.73265,2.25802 6.10825,1.38186 6.8449,4.13106 0.73665,2.7492 -3.49082,4.17822 -3.86232,7.00005 -0.3715,2.82183 3.34206,5.29631 1.91897,7.76117 z"
         inkscape:transform-center-y="0.032778057"
         transform="matrix(0.32013575,0.08578012,-0.08578012,0.32013575,905.29499,209.47499)"
         inkscape:transform-center-x="0.4855877" /><circle
         style="fill:none;fill-opacity:1;stroke:#ede7d8;stroke-width:1.69739;stroke-linecap:round;stroke-linejoin:round;stroke-opacity:1"
         id="path4-5"
         cx="778.7262"
         cy="385.57205"
         r="8.5244198" /></g></g></svg>
