<?xml version="1.0" encoding="UTF-8" standalone="no"?>
<!-- Created with Inkscape (http://www.inkscape.org/) -->

<svg
   width="129.47121mm"
   height="124.3697mm"
   viewBox="0 0 129.47121 124.3697"
   version="1.1"
   id="svg1"
   xml:space="preserve"
   inkscape:version="1.4.3 (0d15f75, 2025-12-25)"
   sodipodi:docname="div.svg"
   xmlns:inkscape="http://www.inkscape.org/namespaces/inkscape"
   xmlns:sodipodi="http://sodipodi.sourceforge.net/DTD/sodipodi-0.dtd"
   xmlns="http://www.w3.org/2000/svg"
   xmlns:svg="http://www.w3.org/2000/svg"><sodipodi:namedview
     id="namedview1"
     pagecolor="#505050"
     bordercolor="#eeeeee"
     borderopacity="1"
     inkscape:showpageshadow="0"
     inkscape:pageopacity="0"
     inkscape:pagecheckerboard="0"
     inkscape:deskcolor="#505050"
     inkscape:document-units="mm"
     inkscape:zoom="0.25606581"
     inkscape:cx="-203.0728"
     inkscape:cy="-290.94083"
     inkscape:window-width="1920"
     inkscape:window-height="962"
     inkscape:window-x="0"
     inkscape:window-y="30"
     inkscape:window-maximized="1"
     inkscape:current-layer="layer1" /><defs
     id="defs1"><clipPath
       clipPathUnits="userSpaceOnUse"
       id="clipPath3"><rect
         style="fill:#faf5e1;fill-opacity:1;stroke:none;stroke-width:2.13841;stroke-linecap:round;stroke-linejoin:round"
         id="rect3"
         width="365.25848"
         height="180.82101"
         x="464.87256"
         y="365.7879"
         ry="0.77305228" /></clipPath><clipPath
       clipPathUnits="userSpaceOnUse"
       id="clipPath3-3"><rect
         style="fill:#faf5e1;fill-opacity:1;stroke:none;stroke-width:2.13841;stroke-linecap:round;stroke-linejoin:round"
         id="rect3-0"
         width="365.25848"
         height="180.82101"
         x="464.87256"
         y="365.7879"
         ry="0.77305228" /></clipPath><clipPath
       clipPathUnits="userSpaceOnUse"
       id="clipPath4"><circle
         style="fill:#bdd1f5;stroke-width:2.00607;stroke-linecap:round;stroke-linejoin:round"
         id="circle4"
         cx="639.91492"
         cy="791.97913"
         r="13.881919" /></clipPath></defs><g
     inkscape:label="Layer 1"
     inkscape:groupmode="layer"
     id="layer1"
     transform="translate(-1460.2837,-410.7705)"><path
       id="rect6-4-7"
       style="fill:#b9ccec;fill-opacity:1;stroke:#b9ccec;stroke-width:13.2292;stroke-linecap:round;stroke-linejoin:round;stroke-dasharray:none;stroke-opacity:1"
       d="m 1525.0193,417.3851 a 13.527201,13.527201 0 0 0 -13.5273,13.52682 13.527201,13.527201 0 0 0 13.5273,13.52734 13.527201,13.527201 0 0 0 13.5274,-13.52734 13.527201,13.527201 0 0 0 -13.5274,-13.52682 z m -46.4969,43.94615 c -6.4398,0 -11.6241,5.18429 -11.6241,11.6241 0,6.43981 5.1843,11.62409 11.6241,11.62409 h 92.9938 c 6.4398,0 11.6241,-5.18428 11.6241,-11.62409 0,-6.43981 -5.1843,-11.6241 -11.6241,-11.6241 z m 46.4969,40.13967 a 13.527201,13.527201 0 0 0 -13.5273,13.52734 13.527201,13.527201 0 0 0 13.5273,13.52734 13.527201,13.527201 0 0 0 13.5274,-13.52734 13.527201,13.527201 0 0 0 -13.5274,-13.52734 z" /></g></svg>
