<?xml version="1.0" encoding="UTF-8" standalone="no"?>
<!-- Created with Inkscape (http://www.inkscape.org/) -->

<svg
   width="102.14574mm"
   height="102.14573mm"
   viewBox="0 0 102.14574 102.14573"
   version="1.1"
   id="svg1"
   xml:space="preserve"
   inkscape:version="1.4.3 (0d15f75, 2025-12-25)"
   sodipodi:docname="mul.svg"
   xmlns:inkscape="http://www.inkscape.org/namespaces/inkscape"
   xmlns:sodipodi="http://sodipodi.sourceforge.net/DTD/sodipodi-0.dtd"
   xmlns="http://www.w3.org/2000/svg"
   xmlns:svg="http://www.w3.org/2000/svg"><sodipodi:namedview
     id="namedview1"
     pagecolor="#505050"
     bordercolor="#eeeeee"
     borderopacity="1"
     inkscape:showpageshadow="0"
     inkscape:pageopacity="0"
     inkscape:pagecheckerboard="0"
     inkscape:deskcolor="#505050"
     inkscape:document-units="mm"
     inkscape:zoom="0.090532935"
     inkscape:cx="-717.97076"
     inkscape:cy="160.16271"
     inkscape:window-width="1920"
     inkscape:window-height="962"
     inkscape:window-x="0"
     inkscape:window-y="30"
     inkscape:window-maximized="1"
     inkscape:current-layer="layer1" /><defs
     id="defs1"><clipPath
       clipPathUnits="userSpaceOnUse"
       id="clipPath3"><rect
         style="fill:#faf5e1;fill-opacity:1;stroke:none;stroke-width:2.13841;stroke-linecap:round;stroke-linejoin:round"
         id="rect3"
         width="365.25848"
         height="180.82101"
         x="464.87256"
         y="365.7879"
         ry="0.77305228" /></clipPath><clipPath
       clipPathUnits="userSpaceOnUse"
       id="clipPath3-3"><rect
         style="fill:#faf5e1;fill-opacity:1;stroke:none;stroke-width:2.13841;stroke-linecap:round;stroke-linejoin:round"
         id="rect3-0"
         width="365.25848"
         height="180.82101"
         x="464.87256"
         y="365.7879"
         ry="0.77305228" /></clipPath><clipPath
       clipPathUnits="userSpaceOnUse"
       id="clipPath4"><circle
         style="fill:#bdd1f5;stroke-width:2.00607;stroke-linecap:round;stroke-linejoin:round"
         id="circle4"
         cx="639.91492"
         cy="791.97913"
         r="13.881919" /></clipPath></defs><g
     inkscape:label="Layer 1"
     inkscape:groupmode="layer"
     id="layer1"
     transform="translate(-1304.6823,-418.17727)"><path
       id="path10"
       style="fill:#f7da72;fill-opacity:1;stroke:#f7da72;stroke-width:13.2292;stroke-linecap:round;stroke-linejoin:round;stroke-dasharray:none;stroke-opacity:1"
       d="m 1396.8529,428.15238 c -4.5537,-4.55362 -11.8854,-4.55364 -16.439,0 l -24.6588,24.6588 -24.6588,-24.65878 c -4.5536,-4.55363 -11.8853,-4.55362 -16.4389,10e-6 -4.5537,4.55363 -4.5537,11.88531 0,16.43895 l 24.6588,24.65877 -24.6588,24.6588 c -4.5537,4.55363 -4.5537,11.88533 0,16.43896 4.5536,4.55363 11.8853,4.55363 16.4389,0 l 24.6588,-24.6588 24.6588,24.65879 c 4.5537,4.5537 11.8853,4.55364 16.439,1e-5 4.5536,-4.55363 4.5537,-11.88526 0,-16.43896 l -24.6588,-24.65879 24.6588,-24.6588 c 4.5536,-4.55364 4.5536,-11.88533 0,-16.43896 z" /></g></svg>
