<?xml version="1.0" encoding="UTF-8" standalone="no"?>
<!-- Created with Inkscape (http://www.inkscape.org/) -->

<svg
   width="129.47113mm"
   height="129.47116mm"
   viewBox="0 0 129.47113 129.47116"
   version="1.1"
   id="svg1"
   xml:space="preserve"
   inkscape:version="1.4.3 (0d15f75, 2025-12-25)"
   sodipodi:docname="plus.svg"
   xmlns:inkscape="http://www.inkscape.org/namespaces/inkscape"
   xmlns:sodipodi="http://sodipodi.sourceforge.net/DTD/sodipodi-0.dtd"
   xmlns="http://www.w3.org/2000/svg"
   xmlns:svg="http://www.w3.org/2000/svg"><sodipodi:namedview
     id="namedview1"
     pagecolor="#505050"
     bordercolor="#eeeeee"
     borderopacity="1"
     inkscape:showpageshadow="0"
     inkscape:pageopacity="0"
     inkscape:pagecheckerboard="0"
     inkscape:deskcolor="#505050"
     inkscape:document-units="mm"
     inkscape:zoom="0.090532935"
     inkscape:cx="-1275.7788"
     inkscape:cy="93.888484"
     inkscape:window-width="1920"
     inkscape:window-height="962"
     inkscape:window-x="0"
     inkscape:window-y="30"
     inkscape:window-maximized="1"
     inkscape:current-layer="layer1" /><defs
     id="defs1"><clipPath
       clipPathUnits="userSpaceOnUse"
       id="clipPath3"><rect
         style="fill:#faf5e1;fill-opacity:1;stroke:none;stroke-width:2.13841;stroke-linecap:round;stroke-linejoin:round"
         id="rect3"
         width="365.25848"
         height="180.82101"
         x="464.87256"
         y="365.7879"
         ry="0.77305228" /></clipPath><clipPath
       clipPathUnits="userSpaceOnUse"
       id="clipPath3-3"><rect
         style="fill:#faf5e1;fill-opacity:1;stroke:none;stroke-width:2.13841;stroke-linecap:round;stroke-linejoin:round"
         id="rect3-0"
         width="365.25848"
         height="180.82101"
         x="464.87256"
         y="365.7879"
         ry="0.77305228" /></clipPath><clipPath
       clipPathUnits="userSpaceOnUse"
       id="clipPath4"><circle
         style="fill:#bdd1f5;stroke-width:2.00607;stroke-linecap:round;stroke-linejoin:round"
         id="circle4"
         cx="639.91492"
         cy="791.97913"
         r="13.881919" /></clipPath></defs><g
     inkscape:label="Layer 1"
     inkscape:groupmode="layer"
     id="layer1"
     transform="translate(-976.90756,-404.51457)"><path
       id="rect6"
       style="fill:#9fb06c;fill-opacity:1;stroke:#9fb06c;stroke-width:13.2292;stroke-linecap:round;stroke-linejoin:round;stroke-dasharray:none;stroke-opacity:1"
       d="m 1041.6431,411.12915 c -6.4398,0 -11.6241,5.18428 -11.6241,11.62409 v 34.87281 h -34.87277 c -6.43981,0 -11.62409,5.18429 -11.62409,11.6241 0,6.43981 5.18428,11.62409 11.62409,11.62409 h 34.87277 v 34.87281 c 0,6.43981 5.1843,11.6241 11.6241,11.6241 6.4398,0 11.6241,-5.18429 11.6241,-11.6241 v -34.87281 h 34.8728 c 6.4399,0 11.6241,-5.18428 11.6241,-11.62409 0,-6.43981 -5.1842,-11.6241 -11.6241,-11.6241 h -34.8728 v -34.87281 c 0,-6.43981 -5.1843,-11.62409 -11.6241,-11.62409 z" /></g></svg>
